mtllib t-slot_plate_pt_25_-_partno_201_018_1000.mtl
o t-slot_plate_pt_25_-_partno_201_018_1000_1
v 8.45 19 1000
v 8.45 15 1000
v 8.45 19 0
v 8.45 15 0
v 5.25 15 1000
v 5.25 15 0
v 5.25 8 1000
v 5.25 8 0
v 19.75 8 1000
v 19.75 8 0
v 19.75 15 1000
v 19.75 15 0
v 16.55 15 1000
v 16.55 15 0
v 16.55 19 1000
v 16.55 19 0
v 17.55 20 1000
v 17.55 20 0
v 32.45 20 1000
v 32.45 20 0
v 33.45 19 1000
v 33.45 19 0
v 33.45 15 1000
v 33.45 15 0
v 30.25 15 1000
v 30.25 15 0
v 30.25 8 1000
v 30.25 8 0
v 44.75 8 1000
v 44.75 8 0
v 44.75 15 1000
v 44.75 15 0
v 41.55 15 1000
v 41.55 15 0
v 41.55 19 1000
v 41.55 19 0
v 42.55 20 1000
v 42.55 20 0
v 57.45 20 1000
v 57.45 20 0
v 58.45 19 1000
v 58.45 19 0
v 58.45 15 1000
v 58.45 15 0
v 55.25 15 1000
v 55.25 15 0
v 55.25 8 1000
v 55.25 8 0
v 69.75 8 1000
v 69.75 8 0
v 69.75 15 1000
v 69.75 15 0
v 66.55 15 1000
v 66.55 15 0
v 66.55 19 1000
v 66.55 19 0
v 67.55 20 1000
v 67.55 20 0
v 82.45 20 1000
v 82.45 20 0
v 83.45 19 1000
v 83.45 19 0
v 83.45 15 1000
v 83.45 15 0
v 80.25 15 1000
v 80.25 15 0
v 80.25 8 1000
v 80.25 8 0
v 94.75 8 1000
v 94.75 8 0
v 94.75 15 1000
v 94.75 15 0
v 91.55 15 1000
v 91.55 15 0
v 91.55 19 1000
v 91.55 19 0
v 92.55 20 1000
v 92.55 20 0
v 107.45 20 1000
v 107.45 20 0
v 108.45 19 1000
v 108.45 19 0
v 108.45 15 1000
v 108.45 15 0
v 105.25 15 1000
v 105.25 15 0
v 105.25 8 1000
v 105.25 8 0
v 119.75 8 1000
v 119.75 8 0
v 119.75 15 1000
v 119.75 15 0
v 116.55 15 1000
v 116.55 15 0
v 116.55 19 1000
v 116.55 19 0
v 117.55 20 1000
v 117.55 20 0
v 124 20 1000
v 124 20 0
v 125 19 1000
v 125 19 0
v 125 1 1000
v 125 1 0
v 124 0 1000
v 124 0 0
v 102.5 0 1000
v 102.5 0 0
v 101 1.5 1000
v 101 1.5 0
v 99 1.5 1000
v 99 1.5 0
v 97.5 0 1000
v 97.5 0 0
v 52.5 0 1000
v 52.5 0 0
v 51 1.5 1000
v 51 1.5 0
v 49 1.5 1000
v 49 1.5 0
v 47.5 0 1000
v 47.5 0 0
v 2.5 0 1000
v 2.5 0 0
v 1 1.5 1000
v 1 1.5 0
v -1 1.5 1000
v -1 1.5 0
v -2.5 0 1000
v -2.5 0 0
v -47.5 0 1000
v -47.5 0 0
v -49 1.5 1000
v -49 1.5 0
v -51 1.5 1000
v -51 1.5 0
v -52.5 0 1000
v -52.5 0 0
v -97.5 0 1000
v -97.5 0 0
v -99 1.5 1000
v -99 1.5 0
v -101 1.5 1000
v -101 1.5 0
v -102.5 0 1000
v -102.5 0 0
v -124 0 1000
v -124 0 0
v -125 1 1000
v -125 1 0
v -125 19 1000
v -125 19 0
v -124 20 1000
v -124 20 0
v -117.55 20 1000
v -117.55 20 0
v -116.55 19 1000
v -116.55 19 0
v -116.55 15 1000
v -116.55 15 0
v -119.75 15 1000
v -119.75 15 0
v -119.75 8 1000
v -119.75 8 0
v -105.25 8 1000
v -105.25 8 0
v -105.25 15 1000
v -105.25 15 0
v -108.45 15 1000
v -108.45 15 0
v -108.45 19 1000
v -108.45 19 0
v -107.45 20 1000
v -107.45 20 0
v -92.55 20 1000
v -92.55 20 0
v -91.55 19 1000
v -91.55 19 0
v -91.55 15 1000
v -91.55 15 0
v -94.75 15 1000
v -94.75 15 0
v -94.75 8 1000
v -94.75 8 0
v -80.25 8 1000
v -80.25 8 0
v -80.25 15 1000
v -80.25 15 0
v -83.45 15 1000
v -83.45 15 0
v -83.45 19 1000
v -83.45 19 0
v -82.45 20 1000
v -82.45 20 0
v -67.55 20 1000
v -67.55 20 0
v -66.55 19 1000
v -66.55 19 0
v -66.55 15 1000
v -66.55 15 0
v -69.75 15 1000
v -69.75 15 0
v -69.75 8 1000
v -69.75 8 0
v -55.25 8 1000
v -55.25 8 0
v -55.25 15 1000
v -55.25 15 0
v -58.45 15 1000
v -58.45 15 0
v -58.45 19 1000
v -58.45 19 0
v -57.45 20 1000
v -57.45 20 0
v -42.55 20 1000
v -42.55 20 0
v -41.55 19 1000
v -41.55 19 0
v -41.55 15 1000
v -41.55 15 0
v -44.75 15 1000
v -44.75 15 0
v -44.75 8 1000
v -44.75 8 0
v -30.25 8 1000
v -30.25 8 0
v -30.25 15 1000
v -30.25 15 0
v -33.45 15 1000
v -33.45 15 0
v -33.45 19 1000
v -33.45 19 0
v -32.45 20 1000
v -32.45 20 0
v -17.55 20 1000
v -17.55 20 0
v -16.55 19 1000
v -16.55 19 0
v -16.55 15 1000
v -16.55 15 0
v -19.75 15 1000
v -19.75 15 0
v -19.75 8 1000
v -19.75 8 0
v -5.25 8 1000
v -5.25 8 0
v -5.25 15 1000
v -5.25 15 0
v -8.45 15 1000
v -8.45 15 0
v -8.45 19 1000
v -8.45 19 0
v -7.45 20 1000
v -7.45 20 0
v 7.45 20 1000
v 7.45 20 0
vn 1 0 0
vn 0 -1 0
vn 0 1 0
vn -1 0 0
vn -0.707 0.707 0
vn 0.707 0.707 0
vn 0.707 -0.707 0
vn -0.707 -0.707 0
vn 0 0 1
vn 0 0 -1
g t-slot_plate_pt_25_-_partno_201_018_1000_1
usemtl t-slot_plate_pt_25_-_partno_201_018_1000_color_1
f 1//1 2//1 3//1
f 3//1 2//1 4//1
f 2//2 5//2 4//2
f 4//2 5//2 6//2
f 5//1 7//1 6//1
f 6//1 7//1 8//1
f 7//3 9//3 8//3
f 8//3 9//3 10//3
f 9//4 11//4 10//4
f 10//4 11//4 12//4
f 11//2 13//2 12//2
f 12//2 13//2 14//2
f 13//4 15//4 14//4
f 14//4 15//4 16//4
f 15//5 17//5 16//5
f 16//5 17//5 18//5
f 17//3 19//3 18//3
f 18//3 19//3 20//3
f 19//6 21//6 20//6
f 20//6 21//6 22//6
f 21//1 23//1 22//1
f 22//1 23//1 24//1
f 23//2 25//2 24//2
f 24//2 25//2 26//2
f 25//1 27//1 26//1
f 26//1 27//1 28//1
f 27//3 29//3 28//3
f 28//3 29//3 30//3
f 29//4 31//4 30//4
f 30//4 31//4 32//4
f 31//2 33//2 32//2
f 32//2 33//2 34//2
f 33//4 35//4 34//4
f 34//4 35//4 36//4
f 35//5 37//5 36//5
f 36//5 37//5 38//5
f 37//3 39//3 38//3
f 38//3 39//3 40//3
f 39//6 41//6 40//6
f 40//6 41//6 42//6
f 41//1 43//1 42//1
f 42//1 43//1 44//1
f 43//2 45//2 44//2
f 44//2 45//2 46//2
f 45//1 47//1 46//1
f 46//1 47//1 48//1
f 47//3 49//3 48//3
f 48//3 49//3 50//3
f 49//4 51//4 50//4
f 50//4 51//4 52//4
f 51//2 53//2 52//2
f 52//2 53//2 54//2
f 53//4 55//4 54//4
f 54//4 55//4 56//4
f 55//5 57//5 56//5
f 56//5 57//5 58//5
f 57//3 59//3 58//3
f 58//3 59//3 60//3
f 59//6 61//6 60//6
f 60//6 61//6 62//6
f 61//1 63//1 62//1
f 62//1 63//1 64//1
f 63//2 65//2 64//2
f 64//2 65//2 66//2
f 65//1 67//1 66//1
f 66//1 67//1 68//1
f 67//3 69//3 68//3
f 68//3 69//3 70//3
f 69//4 71//4 70//4
f 70//4 71//4 72//4
f 71//2 73//2 72//2
f 72//2 73//2 74//2
f 73//4 75//4 74//4
f 74//4 75//4 76//4
f 75//5 77//5 76//5
f 76//5 77//5 78//5
f 77//3 79//3 78//3
f 78//3 79//3 80//3
f 79//6 81//6 80//6
f 80//6 81//6 82//6
f 81//1 83//1 82//1
f 82//1 83//1 84//1
f 83//2 85//2 84//2
f 84//2 85//2 86//2
f 85//1 87//1 86//1
f 86//1 87//1 88//1
f 87//3 89//3 88//3
f 88//3 89//3 90//3
f 89//4 91//4 90//4
f 90//4 91//4 92//4
f 91//2 93//2 92//2
f 92//2 93//2 94//2
f 93//4 95//4 94//4
f 94//4 95//4 96//4
f 95//5 97//5 96//5
f 96//5 97//5 98//5
f 97//3 99//3 98//3
f 98//3 99//3 100//3
f 99//6 101//6 100//6
f 100//6 101//6 102//6
f 101//1 103//1 102//1
f 102//1 103//1 104//1
f 103//7 105//7 104//7
f 104//7 105//7 106//7
f 105//2 107//2 106//2
f 106//2 107//2 108//2
f 107//8 109//8 108//8
f 108//8 109//8 110//8
f 109//2 111//2 110//2
f 110//2 111//2 112//2
f 111//7 113//7 112//7
f 112//7 113//7 114//7
f 113//2 115//2 114//2
f 114//2 115//2 116//2
f 115//8 117//8 116//8
f 116//8 117//8 118//8
f 117//2 119//2 118//2
f 118//2 119//2 120//2
f 119//7 121//7 120//7
f 120//7 121//7 122//7
f 121//2 123//2 122//2
f 122//2 123//2 124//2
f 123//8 125//8 124//8
f 124//8 125//8 126//8
f 125//2 127//2 126//2
f 126//2 127//2 128//2
f 127//7 129//7 128//7
f 128//7 129//7 130//7
f 129//2 131//2 130//2
f 130//2 131//2 132//2
f 131//8 133//8 132//8
f 132//8 133//8 134//8
f 133//2 135//2 134//2
f 134//2 135//2 136//2
f 135//7 137//7 136//7
f 136//7 137//7 138//7
f 137//2 139//2 138//2
f 138//2 139//2 140//2
f 139//8 141//8 140//8
f 140//8 141//8 142//8
f 141//2 143//2 142//2
f 142//2 143//2 144//2
f 143//7 145//7 144//7
f 144//7 145//7 146//7
f 145//2 147//2 146//2
f 146//2 147//2 148//2
f 147//8 149//8 148//8
f 148//8 149//8 150//8
f 149//4 151//4 150//4
f 150//4 151//4 152//4
f 151//5 153//5 152//5
f 152//5 153//5 154//5
f 153//3 155//3 154//3
f 154//3 155//3 156//3
f 155//6 157//6 156//6
f 156//6 157//6 158//6
f 157//1 159//1 158//1
f 158//1 159//1 160//1
f 159//2 161//2 160//2
f 160//2 161//2 162//2
f 161//1 163//1 162//1
f 162//1 163//1 164//1
f 163//3 165//3 164//3
f 164//3 165//3 166//3
f 165//4 167//4 166//4
f 166//4 167//4 168//4
f 167//2 169//2 168//2
f 168//2 169//2 170//2
f 169//4 171//4 170//4
f 170//4 171//4 172//4
f 171//5 173//5 172//5
f 172//5 173//5 174//5
f 173//3 175//3 174//3
f 174//3 175//3 176//3
f 175//6 177//6 176//6
f 176//6 177//6 178//6
f 177//1 179//1 178//1
f 178//1 179//1 180//1
f 179//2 181//2 180//2
f 180//2 181//2 182//2
f 181//1 183//1 182//1
f 182//1 183//1 184//1
f 183//3 185//3 184//3
f 184//3 185//3 186//3
f 185//4 187//4 186//4
f 186//4 187//4 188//4
f 187//2 189//2 188//2
f 188//2 189//2 190//2
f 189//4 191//4 190//4
f 190//4 191//4 192//4
f 191//5 193//5 192//5
f 192//5 193//5 194//5
f 193//3 195//3 194//3
f 194//3 195//3 196//3
f 195//6 197//6 196//6
f 196//6 197//6 198//6
f 197//1 199//1 198//1
f 198//1 199//1 200//1
f 199//2 201//2 200//2
f 200//2 201//2 202//2
f 201//1 203//1 202//1
f 202//1 203//1 204//1
f 203//3 205//3 204//3
f 204//3 205//3 206//3
f 205//4 207//4 206//4
f 206//4 207//4 208//4
f 207//2 209//2 208//2
f 208//2 209//2 210//2
f 209//4 211//4 210//4
f 210//4 211//4 212//4
f 211//5 213//5 212//5
f 212//5 213//5 214//5
f 213//3 215//3 214//3
f 214//3 215//3 216//3
f 215//6 217//6 216//6
f 216//6 217//6 218//6
f 217//1 219//1 218//1
f 218//1 219//1 220//1
f 219//2 221//2 220//2
f 220//2 221//2 222//2
f 221//1 223//1 222//1
f 222//1 223//1 224//1
f 223//3 225//3 224//3
f 224//3 225//3 226//3
f 225//4 227//4 226//4
f 226//4 227//4 228//4
f 227//2 229//2 228//2
f 228//2 229//2 230//2
f 229//4 231//4 230//4
f 230//4 231//4 232//4
f 231//5 233//5 232//5
f 232//5 233//5 234//5
f 233//3 235//3 234//3
f 234//3 235//3 236//3
f 235//6 237//6 236//6
f 236//6 237//6 238//6
f 237//1 239//1 238//1
f 238//1 239//1 240//1
f 239//2 241//2 240//2
f 240//2 241//2 242//2
f 241//1 243//1 242//1
f 242//1 243//1 244//1
f 243//3 245//3 244//3
f 244//3 245//3 246//3
f 245//4 247//4 246//4
f 246//4 247//4 248//4
f 247//2 249//2 248//2
f 248//2 249//2 250//2
f 249//4 251//4 250//4
f 250//4 251//4 252//4
f 251//5 253//5 252//5
f 252//5 253//5 254//5
f 253//3 255//3 254//3
f 254//3 255//3 256//3
f 255//6 1//6 256//6
f 256//6 1//6 3//6
f 2//9 1//9 5//9
f 5//9 1//9 255//9
f 5//9 255//9 253//9
f 5//9 253//9 247//9
f 247//9 253//9 251//9
f 247//9 251//9 249//9
f 5//9 247//9 7//9
f 7//9 247//9 245//9
f 7//9 245//9 125//9
f 125//9 245//9 127//9
f 127//9 245//9 129//9
f 129//9 245//9 243//9
f 129//9 243//9 225//9
f 225//9 243//9 227//9
f 243//9 241//9 227//9
f 227//9 241//9 233//9
f 227//9 233//9 231//9
f 239//9 237//9 241//9
f 241//9 237//9 235//9
f 241//9 235//9 233//9
f 231//9 229//9 227//9
f 129//9 225//9 131//9
f 131//9 225//9 223//9
f 131//9 223//9 133//9
f 133//9 223//9 205//9
f 133//9 205//9 135//9
f 135//9 205//9 137//9
f 205//9 223//9 207//9
f 207//9 223//9 221//9
f 207//9 221//9 213//9
f 213//9 221//9 215//9
f 219//9 217//9 221//9
f 221//9 217//9 215//9
f 213//9 211//9 207//9
f 207//9 211//9 209//9
f 205//9 203//9 137//9
f 137//9 203//9 185//9
f 137//9 185//9 139//9
f 139//9 185//9 183//9
f 139//9 183//9 141//9
f 141//9 183//9 165//9
f 141//9 165//9 143//9
f 143//9 165//9 145//9
f 185//9 203//9 187//9
f 187//9 203//9 201//9
f 187//9 201//9 193//9
f 193//9 201//9 195//9
f 199//9 197//9 201//9
f 201//9 197//9 195//9
f 193//9 191//9 187//9
f 187//9 191//9 189//9
f 165//9 183//9 167//9
f 167//9 183//9 181//9
f 167//9 181//9 173//9
f 173//9 181//9 175//9
f 179//9 177//9 181//9
f 181//9 177//9 175//9
f 173//9 171//9 167//9
f 167//9 171//9 169//9
f 165//9 163//9 145//9
f 145//9 163//9 147//9
f 155//9 153//9 161//9
f 161//9 153//9 151//9
f 161//9 151//9 163//9
f 163//9 151//9 149//9
f 163//9 149//9 147//9
f 159//9 157//9 161//9
f 161//9 157//9 155//9
f 125//9 123//9 7//9
f 7//9 123//9 9//9
f 123//9 121//9 9//9
f 9//9 121//9 27//9
f 9//9 27//9 11//9
f 11//9 27//9 25//9
f 11//9 25//9 17//9
f 17//9 25//9 19//9
f 27//9 121//9 29//9
f 29//9 121//9 119//9
f 29//9 119//9 117//9
f 29//9 117//9 47//9
f 47//9 117//9 115//9
f 47//9 115//9 49//9
f 49//9 115//9 113//9
f 49//9 113//9 67//9
f 67//9 113//9 69//9
f 113//9 111//9 69//9
f 69//9 111//9 109//9
f 69//9 109//9 87//9
f 87//9 109//9 107//9
f 87//9 107//9 89//9
f 89//9 107//9 105//9
f 89//9 105//9 103//9
f 103//9 101//9 89//9
f 89//9 101//9 91//9
f 101//9 99//9 91//9
f 91//9 99//9 97//9
f 91//9 97//9 95//9
f 95//9 93//9 91//9
f 69//9 87//9 71//9
f 71//9 87//9 85//9
f 71//9 85//9 77//9
f 77//9 85//9 79//9
f 83//9 81//9 85//9
f 85//9 81//9 79//9
f 77//9 75//9 71//9
f 71//9 75//9 73//9
f 49//9 67//9 51//9
f 51//9 67//9 65//9
f 51//9 65//9 57//9
f 57//9 65//9 59//9
f 63//9 61//9 65//9
f 65//9 61//9 59//9
f 57//9 55//9 51//9
f 51//9 55//9 53//9
f 29//9 47//9 31//9
f 31//9 47//9 45//9
f 31//9 45//9 37//9
f 37//9 45//9 39//9
f 43//9 41//9 45//9
f 45//9 41//9 39//9
f 37//9 35//9 31//9
f 31//9 35//9 33//9
f 23//9 21//9 25//9
f 25//9 21//9 19//9
f 17//9 15//9 11//9
f 11//9 15//9 13//9
f 3//10 6//10 256//10
f 256//10 6//10 248//10
f 256//10 248//10 254//10
f 254//10 248//10 252//10
f 3//10 4//10 6//10
f 248//10 6//10 246//10
f 246//10 6//10 8//10
f 246//10 8//10 128//10
f 128//10 8//10 126//10
f 126//10 8//10 124//10
f 124//10 8//10 10//10
f 124//10 10//10 28//10
f 28//10 10//10 26//10
f 10//10 12//10 26//10
f 26//10 12//10 20//10
f 26//10 20//10 22//10
f 14//10 16//10 12//10
f 12//10 16//10 18//10
f 12//10 18//10 20//10
f 22//10 24//10 26//10
f 124//10 28//10 122//10
f 122//10 28//10 30//10
f 122//10 30//10 120//10
f 120//10 30//10 48//10
f 120//10 48//10 118//10
f 118//10 48//10 116//10
f 48//10 30//10 46//10
f 46//10 30//10 32//10
f 46//10 32//10 40//10
f 40//10 32//10 38//10
f 34//10 36//10 32//10
f 32//10 36//10 38//10
f 40//10 42//10 46//10
f 46//10 42//10 44//10
f 48//10 50//10 116//10
f 116//10 50//10 68//10
f 116//10 68//10 114//10
f 114//10 68//10 70//10
f 114//10 70//10 112//10
f 112//10 70//10 88//10
f 112//10 88//10 110//10
f 110//10 88//10 108//10
f 68//10 50//10 66//10
f 66//10 50//10 52//10
f 66//10 52//10 60//10
f 60//10 52//10 58//10
f 54//10 56//10 52//10
f 52//10 56//10 58//10
f 60//10 62//10 66//10
f 66//10 62//10 64//10
f 88//10 70//10 86//10
f 86//10 70//10 72//10
f 86//10 72//10 80//10
f 80//10 72//10 78//10
f 74//10 76//10 72//10
f 72//10 76//10 78//10
f 80//10 82//10 86//10
f 86//10 82//10 84//10
f 88//10 90//10 108//10
f 108//10 90//10 106//10
f 98//10 100//10 92//10
f 92//10 100//10 102//10
f 92//10 102//10 90//10
f 90//10 102//10 104//10
f 90//10 104//10 106//10
f 94//10 96//10 92//10
f 92//10 96//10 98//10
f 128//10 130//10 246//10
f 246//10 130//10 244//10
f 130//10 132//10 244//10
f 244//10 132//10 226//10
f 244//10 226//10 242//10
f 242//10 226//10 228//10
f 242//10 228//10 236//10
f 236//10 228//10 234//10
f 226//10 132//10 224//10
f 224//10 132//10 134//10
f 224//10 134//10 136//10
f 224//10 136//10 206//10
f 206//10 136//10 138//10
f 206//10 138//10 204//10
f 204//10 138//10 140//10
f 204//10 140//10 186//10
f 186//10 140//10 184//10
f 140//10 142//10 184//10
f 184//10 142//10 144//10
f 184//10 144//10 166//10
f 166//10 144//10 146//10
f 166//10 146//10 164//10
f 164//10 146//10 148//10
f 164//10 148//10 150//10
f 150//10 152//10 164//10
f 164//10 152//10 162//10
f 152//10 154//10 162//10
f 162//10 154//10 156//10
f 162//10 156//10 158//10
f 158//10 160//10 162//10
f 184//10 166//10 182//10
f 182//10 166//10 168//10
f 182//10 168//10 176//10
f 176//10 168//10 174//10
f 170//10 172//10 168//10
f 168//10 172//10 174//10
f 176//10 178//10 182//10
f 182//10 178//10 180//10
f 204//10 186//10 202//10
f 202//10 186//10 188//10
f 202//10 188//10 196//10
f 196//10 188//10 194//10
f 190//10 192//10 188//10
f 188//10 192//10 194//10
f 196//10 198//10 202//10
f 202//10 198//10 200//10
f 224//10 206//10 222//10
f 222//10 206//10 208//10
f 222//10 208//10 216//10
f 216//10 208//10 214//10
f 210//10 212//10 208//10
f 208//10 212//10 214//10
f 216//10 218//10 222//10
f 222//10 218//10 220//10
f 230//10 232//10 228//10
f 228//10 232//10 234//10
f 236//10 238//10 242//10
f 242//10 238//10 240//10
f 248//10 250//10 252//10
l 1 2
l 4 2
l 3 4
l 3 1
l 2 5
l 6 5
l 4 6
l 5 7
l 8 7
l 6 8
l 7 9
l 10 9
l 8 10
l 9 11
l 12 11
l 10 12
l 11 13
l 14 13
l 12 14
l 13 15
l 16 15
l 14 16
l 15 17
l 18 17
l 16 18
l 17 19
l 20 19
l 20 18
l 19 21
l 22 21
l 20 22
l 21 23
l 24 23
l 22 24
l 23 25
l 26 25
l 24 26
l 25 27
l 28 27
l 26 28
l 27 29
l 30 29
l 28 30
l 29 31
l 32 31
l 30 32
l 31 33
l 34 33
l 32 34
l 33 35
l 36 35
l 34 36
l 35 37
l 38 37
l 36 38
l 37 39
l 40 39
l 40 38
l 39 41
l 42 41
l 40 42
l 41 43
l 44 43
l 42 44
l 43 45
l 46 45
l 44 46
l 45 47
l 48 47
l 46 48
l 47 49
l 50 49
l 48 50
l 49 51
l 52 51
l 50 52
l 51 53
l 54 53
l 52 54
l 53 55
l 56 55
l 54 56
l 55 57
l 58 57
l 56 58
l 57 59
l 60 59
l 60 58
l 59 61
l 62 61
l 60 62
l 61 63
l 64 63
l 62 64
l 63 65
l 66 65
l 64 66
l 65 67
l 68 67
l 66 68
l 67 69
l 70 69
l 68 70
l 69 71
l 72 71
l 70 72
l 71 73
l 74 73
l 72 74
l 73 75
l 76 75
l 74 76
l 75 77
l 78 77
l 76 78
l 77 79
l 80 79
l 80 78
l 79 81
l 82 81
l 80 82
l 81 83
l 84 83
l 82 84
l 83 85
l 86 85
l 84 86
l 85 87
l 88 87
l 86 88
l 87 89
l 90 89
l 88 90
l 89 91
l 92 91
l 90 92
l 91 93
l 94 93
l 92 94
l 93 95
l 96 95
l 94 96
l 95 97
l 98 97
l 96 98
l 97 99
l 100 99
l 100 98
l 99 101
l 102 101
l 102 100
l 101 103
l 104 103
l 104 102
l 103 105
l 106 105
l 106 104
l 105 107
l 108 107
l 108 106
l 107 109
l 110 109
l 110 108
l 109 111
l 112 111
l 110 112
l 111 113
l 114 113
l 112 114
l 113 115
l 116 115
l 116 114
l 115 117
l 118 117
l 118 116
l 117 119
l 120 119
l 118 120
l 119 121
l 122 121
l 120 122
l 121 123
l 124 123
l 124 122
l 123 125
l 126 125
l 126 124
l 125 127
l 128 127
l 126 128
l 127 129
l 130 129
l 128 130
l 129 131
l 132 131
l 130 132
l 131 133
l 134 133
l 134 132
l 133 135
l 136 135
l 136 134
l 135 137
l 138 137
l 136 138
l 137 139
l 140 139
l 138 140
l 139 141
l 142 141
l 142 140
l 141 143
l 144 143
l 144 142
l 143 145
l 146 145
l 144 146
l 145 147
l 148 147
l 146 148
l 147 149
l 150 149
l 148 150
l 149 151
l 152 151
l 150 152
l 151 153
l 154 153
l 152 154
l 153 155
l 156 155
l 154 156
l 155 157
l 158 157
l 158 156
l 157 159
l 160 159
l 160 158
l 159 161
l 162 161
l 162 160
l 161 163
l 164 163
l 164 162
l 163 165
l 166 165
l 166 164
l 165 167
l 168 167
l 168 166
l 167 169
l 170 169
l 170 168
l 169 171
l 172 171
l 172 170
l 171 173
l 174 173
l 174 172
l 173 175
l 176 175
l 174 176
l 175 177
l 178 177
l 178 176
l 177 179
l 180 179
l 180 178
l 179 181
l 182 181
l 182 180
l 181 183
l 184 183
l 184 182
l 183 185
l 186 185
l 186 184
l 185 187
l 188 187
l 188 186
l 187 189
l 190 189
l 190 188
l 189 191
l 192 191
l 192 190
l 191 193
l 194 193
l 194 192
l 193 195
l 196 195
l 194 196
l 195 197
l 198 197
l 198 196
l 197 199
l 200 199
l 200 198
l 199 201
l 202 201
l 202 200
l 201 203
l 204 203
l 204 202
l 203 205
l 206 205
l 206 204
l 205 207
l 208 207
l 208 206
l 207 209
l 210 209
l 210 208
l 209 211
l 212 211
l 212 210
l 211 213
l 214 213
l 214 212
l 213 215
l 216 215
l 214 216
l 215 217
l 218 217
l 218 216
l 217 219
l 220 219
l 220 218
l 219 221
l 222 221
l 222 220
l 221 223
l 224 223
l 224 222
l 223 225
l 226 225
l 226 224
l 225 227
l 228 227
l 228 226
l 227 229
l 230 229
l 230 228
l 229 231
l 232 231
l 232 230
l 231 233
l 234 233
l 234 232
l 233 235
l 236 235
l 234 236
l 235 237
l 238 237
l 238 236
l 237 239
l 240 239
l 240 238
l 239 241
l 242 241
l 242 240
l 241 243
l 244 243
l 244 242
l 243 245
l 246 245
l 246 244
l 245 247
l 248 247
l 248 246
l 247 249
l 250 249
l 250 248
l 249 251
l 252 251
l 252 250
l 251 253
l 254 253
l 254 252
l 253 255
l 256 255
l 256 254
l 255 1
l 256 3
