<?xml version="1.0" encoding="UTF-8" standalone="no"?>
<!DOCTYPE svg PUBLIC "-//W3C//DTD SVG 1.1//EN"
 "http://www.w3.org/Graphics/SVG/1.1/DTD/svg11.dtd">
<!-- Generated by graphviz version 2.43.0 (0)
 -->
<!-- Title: G Pages: 1 -->
<svg width="1232pt" height="295pt"
 viewBox="0.00 0.00 1231.60 294.60" xmlns="http://www.w3.org/2000/svg" xmlns:xlink="http://www.w3.org/1999/xlink">
<g id="graph0" class="graph" transform="scale(1 1) rotate(0) translate(10.8 283.8)">
<title>G</title>
<polygon fill="white" stroke="transparent" points="-10.8,10.8 -10.8,-283.8 1220.8,-283.8 1220.8,10.8 -10.8,10.8"/>
<text text-anchor="middle" x="605" y="-254.6" font-family="Helvetica,sans-Serif" font-size="18.00">Actor Observation and Privileged Training Signals</text>
<!-- raw -->
<g id="node1" class="node">
<title>raw</title>
<path fill="#ddf3ef" stroke="#34495e" d="M132,-234C132,-234 12,-234 12,-234 6,-234 0,-228 0,-222 0,-222 0,-201 0,-201 0,-195 6,-189 12,-189 12,-189 132,-189 132,-189 138,-189 144,-195 144,-201 144,-201 144,-222 144,-222 144,-228 138,-234 132,-234"/>
<text text-anchor="middle" x="72" y="-220" font-family="Helvetica,sans-Serif" font-size="10.00">Wrist camera</text>
<text text-anchor="middle" x="72" y="-209" font-family="Helvetica,sans-Serif" font-size="10.00">RGB uint8 + metric depth</text>
<text text-anchor="middle" x="72" y="-198" font-family="Helvetica,sans-Serif" font-size="10.00">rendered at 256 x 144</text>
</g>
<!-- pre -->
<g id="node2" class="node">
<title>pre</title>
<path fill="#ddf3ef" stroke="#34495e" d="M341,-245C341,-245 193,-245 193,-245 187,-245 181,-239 181,-233 181,-233 181,-190 181,-190 181,-184 187,-178 193,-178 193,-178 341,-178 341,-178 347,-178 353,-184 353,-190 353,-190 353,-233 353,-233 353,-239 347,-245 341,-245"/>
<text text-anchor="middle" x="267" y="-231" font-family="Helvetica,sans-Serif" font-size="10.00">Preprocess live image</text>
<text text-anchor="middle" x="267" y="-220" font-family="Helvetica,sans-Serif" font-size="10.00">RGB / 255</text>
<text text-anchor="middle" x="267" y="-209" font-family="Helvetica,sans-Serif" font-size="10.00">depth = clip((d&#45;0.04)/0.46, 0, 1)</text>
<text text-anchor="middle" x="267" y="-198" font-family="Helvetica,sans-Serif" font-size="10.00">area resize to 128 x 72</text>
<text text-anchor="middle" x="267" y="-187" font-family="Helvetica,sans-Serif" font-size="10.00">training randomization</text>
</g>
<!-- raw&#45;&gt;pre -->
<g id="edge1" class="edge">
<title>raw&#45;&gt;pre</title>
<path fill="none" stroke="#34495e" stroke-width="1.2" d="M144.04,-211.5C153.64,-211.5 163.61,-211.5 173.51,-211.5"/>
<polygon fill="#34495e" stroke="#34495e" stroke-width="1.2" points="173.71,-213.95 180.71,-211.5 173.71,-209.05 173.71,-213.95"/>
</g>
<!-- live -->
<g id="node3" class="node">
<title>live</title>
<path fill="#eaf3fb" stroke="#34495e" d="M508,-229.5C508,-229.5 454,-229.5 454,-229.5 448,-229.5 442,-223.5 442,-217.5 442,-217.5 442,-205.5 442,-205.5 442,-199.5 448,-193.5 454,-193.5 454,-193.5 508,-193.5 508,-193.5 514,-193.5 520,-199.5 520,-205.5 520,-205.5 520,-217.5 520,-217.5 520,-223.5 514,-229.5 508,-229.5"/>
<text text-anchor="middle" x="481" y="-214.5" font-family="Helvetica,sans-Serif" font-size="10.00">Live RGB&#45;D</text>
<text text-anchor="middle" x="481" y="-203.5" font-family="Helvetica,sans-Serif" font-size="10.00">[B,72,128,4]</text>
</g>
<!-- pre&#45;&gt;live -->
<g id="edge2" class="edge">
<title>pre&#45;&gt;live</title>
<path fill="none" stroke="#34495e" stroke-width="1.2" d="M353.01,-211.5C380.99,-211.5 411,-211.5 434.81,-211.5"/>
<polygon fill="#34495e" stroke="#34495e" stroke-width="1.2" points="435,-213.95 442,-211.5 435,-209.05 435,-213.95"/>
</g>
<!-- rollout -->
<g id="node7" class="node">
<title>rollout</title>
<path fill="#eee8fa" stroke="#6c4aa1" stroke-width="1.7" d="M740,-134.5C740,-134.5 621,-134.5 621,-134.5 615,-134.5 609,-128.5 609,-122.5 609,-122.5 609,-110.5 609,-110.5 609,-104.5 615,-98.5 621,-98.5 621,-98.5 740,-98.5 740,-98.5 746,-98.5 752,-104.5 752,-110.5 752,-110.5 752,-122.5 752,-122.5 752,-128.5 746,-134.5 740,-134.5"/>
<text text-anchor="middle" x="680.5" y="-119.5" font-family="Helvetica,sans-Serif" font-size="10.00">Stored policy observation</text>
<text text-anchor="middle" x="680.5" y="-108.5" font-family="Helvetica,sans-Serif" font-size="10.00">[B,73742]</text>
</g>
<!-- live&#45;&gt;rollout -->
<g id="edge3" class="edge">
<title>live&#45;&gt;rollout</title>
<path fill="none" stroke="#34495e" stroke-width="1.2" d="M520.42,-201.33C536.67,-196.46 555.59,-190.05 572,-182.5 598.8,-170.17 627.16,-152.54 648.02,-138.61"/>
<polygon fill="#34495e" stroke="#34495e" stroke-width="1.2" points="649.53,-140.54 653.97,-134.6 646.79,-136.48 649.53,-140.54"/>
</g>
<!-- goal -->
<g id="node4" class="node">
<title>goal</title>
<path fill="#eaf3fb" stroke="#34495e" d="M532,-171C532,-171 430,-171 430,-171 424,-171 418,-165 418,-159 418,-159 418,-138 418,-138 418,-132 424,-126 430,-126 430,-126 532,-126 532,-126 538,-126 544,-132 544,-138 544,-138 544,-159 544,-159 544,-165 538,-171 532,-171"/>
<text text-anchor="middle" x="481" y="-157" font-family="Helvetica,sans-Serif" font-size="10.00">Canonical goal RGB&#45;D</text>
<text text-anchor="middle" x="481" y="-146" font-family="Helvetica,sans-Serif" font-size="10.00">[B,72,128,4]</text>
<text text-anchor="middle" x="481" y="-135" font-family="Helvetica,sans-Serif" font-size="10.00">not randomized</text>
</g>
<!-- goal&#45;&gt;rollout -->
<g id="edge4" class="edge">
<title>goal&#45;&gt;rollout</title>
<path fill="none" stroke="#34495e" stroke-width="1.2" d="M544.22,-138.42C562.55,-135.45 582.83,-132.16 601.99,-129.06"/>
<polygon fill="#34495e" stroke="#34495e" stroke-width="1.2" points="602.48,-131.46 608.99,-127.92 601.69,-126.62 602.48,-131.46"/>
</g>
<!-- prev -->
<g id="node5" class="node">
<title>prev</title>
<path fill="#eaf3fb" stroke="#34495e" d="M525,-103.5C525,-103.5 437,-103.5 437,-103.5 431,-103.5 425,-97.5 425,-91.5 425,-91.5 425,-79.5 425,-79.5 425,-73.5 431,-67.5 437,-67.5 437,-67.5 525,-67.5 525,-67.5 531,-67.5 537,-73.5 537,-79.5 537,-79.5 537,-91.5 537,-91.5 537,-97.5 531,-103.5 525,-103.5"/>
<text text-anchor="middle" x="481" y="-88.5" font-family="Helvetica,sans-Serif" font-size="10.00">Previous executed</text>
<text text-anchor="middle" x="481" y="-77.5" font-family="Helvetica,sans-Serif" font-size="10.00">motion action [B,6]</text>
</g>
<!-- prev&#45;&gt;rollout -->
<g id="edge5" class="edge">
<title>prev&#45;&gt;rollout</title>
<path fill="none" stroke="#34495e" stroke-width="1.2" d="M537.01,-94.14C557.1,-97.29 580.21,-100.91 601.89,-104.32"/>
<polygon fill="#34495e" stroke="#34495e" stroke-width="1.2" points="601.58,-106.75 608.87,-105.41 602.34,-101.91 601.58,-106.75"/>
</g>
<!-- labels -->
<g id="node6" class="node">
<title>labels</title>
<path fill="#fff0f0" stroke="#34495e" d="M560,-45C560,-45 402,-45 402,-45 396,-45 390,-39 390,-33 390,-33 390,-12 390,-12 390,-6 396,0 402,0 402,0 560,0 560,0 566,0 572,-6 572,-12 572,-12 572,-33 572,-33 572,-39 566,-45 560,-45"/>
<text text-anchor="middle" x="481" y="-31" font-family="Helvetica,sans-Serif" font-size="10.00">Training labels [B,8]</text>
<text text-anchor="middle" x="481" y="-20" font-family="Helvetica,sans-Serif" font-size="10.00">normalized camera pose error [6]</text>
<text text-anchor="middle" x="481" y="-9" font-family="Helvetica,sans-Serif" font-size="10.00">ready label [1] + valid mask [1]</text>
</g>
<!-- labels&#45;&gt;rollout -->
<g id="edge6" class="edge">
<title>labels&#45;&gt;rollout</title>
<path fill="none" stroke="#34495e" stroke-width="1.2" d="M545.43,-45.11C554.44,-48.71 563.52,-52.56 572,-56.5 596.59,-67.93 623.21,-82.77 643.81,-94.83"/>
<polygon fill="#34495e" stroke="#34495e" stroke-width="1.2" points="642.73,-97.03 650,-98.48 645.21,-92.81 642.73,-97.03"/>
</g>
<!-- slice -->
<g id="node8" class="node">
<title>slice</title>
<path fill="#fff1d6" stroke="#34495e" d="M936,-134.5C936,-134.5 801,-134.5 801,-134.5 795,-134.5 789,-128.5 789,-122.5 789,-122.5 789,-110.5 789,-110.5 789,-104.5 795,-98.5 801,-98.5 801,-98.5 936,-98.5 936,-98.5 942,-98.5 948,-104.5 948,-110.5 948,-110.5 948,-122.5 948,-122.5 948,-128.5 942,-134.5 936,-134.5"/>
<text text-anchor="middle" x="868.5" y="-119.5" font-family="Helvetica,sans-Serif" font-size="10.00">Actor slices off final 8 values</text>
<text text-anchor="middle" x="868.5" y="-108.5" font-family="Helvetica,sans-Serif" font-size="10.00">BEFORE inference</text>
</g>
<!-- rollout&#45;&gt;slice -->
<g id="edge7" class="edge">
<title>rollout&#45;&gt;slice</title>
<path fill="none" stroke="#34495e" stroke-width="1.2" d="M752.08,-116.5C761.76,-116.5 771.78,-116.5 781.69,-116.5"/>
<polygon fill="#34495e" stroke="#34495e" stroke-width="1.2" points="781.88,-118.95 788.88,-116.5 781.88,-114.05 781.88,-118.95"/>
</g>
<!-- deploy -->
<g id="node9" class="node">
<title>deploy</title>
<path fill="#ddf3ef" stroke="#34495e" d="M1198,-163.5C1198,-163.5 1021,-163.5 1021,-163.5 1015,-163.5 1009,-157.5 1009,-151.5 1009,-151.5 1009,-139.5 1009,-139.5 1009,-133.5 1015,-127.5 1021,-127.5 1021,-127.5 1198,-127.5 1198,-127.5 1204,-127.5 1210,-133.5 1210,-139.5 1210,-139.5 1210,-151.5 1210,-151.5 1210,-157.5 1204,-163.5 1198,-163.5"/>
<text text-anchor="middle" x="1109.5" y="-148.5" font-family="Helvetica,sans-Serif" font-size="10.00">Deployment actor input</text>
<text text-anchor="middle" x="1109.5" y="-137.5" font-family="Helvetica,sans-Serif" font-size="10.00">images [73728] + previous action [6]</text>
</g>
<!-- slice&#45;&gt;deploy -->
<g id="edge8" class="edge">
<title>slice&#45;&gt;deploy</title>
<path fill="none" stroke="#34495e" stroke-width="1.2" d="M948.09,-126.04C965.26,-128.12 983.72,-130.36 1001.79,-132.55"/>
<polygon fill="#34495e" stroke="#34495e" stroke-width="1.2" points="1001.71,-135.01 1008.95,-133.42 1002.3,-130.15 1001.71,-135.01"/>
</g>
<!-- aux -->
<g id="node10" class="node">
<title>aux</title>
<path fill="#fff7e8" stroke="#34495e" stroke-dasharray="5,2" d="M1157.5,-105.5C1157.5,-105.5 1061.5,-105.5 1061.5,-105.5 1055.5,-105.5 1049.5,-99.5 1049.5,-93.5 1049.5,-93.5 1049.5,-81.5 1049.5,-81.5 1049.5,-75.5 1055.5,-69.5 1061.5,-69.5 1061.5,-69.5 1157.5,-69.5 1157.5,-69.5 1163.5,-69.5 1169.5,-75.5 1169.5,-81.5 1169.5,-81.5 1169.5,-93.5 1169.5,-93.5 1169.5,-99.5 1163.5,-105.5 1157.5,-105.5"/>
<text text-anchor="middle" x="1109.5" y="-85" font-family="Helvetica,sans-Serif" font-size="10.00">Auxiliary losses only</text>
</g>
<!-- slice&#45;&gt;aux -->
<g id="edge9" class="edge">
<title>slice&#45;&gt;aux</title>
<path fill="none" stroke="#d17b00" stroke-width="1.2" stroke-dasharray="5,2" d="M948.09,-106.96C978.44,-103.28 1012.8,-99.11 1041.91,-95.58"/>
<polygon fill="#d17b00" stroke="#d17b00" stroke-width="1.2" points="1042.54,-97.97 1049.19,-94.7 1041.95,-93.11 1042.54,-97.97"/>
<text text-anchor="middle" x="978.5" y="-107.3" font-family="Helvetica,sans-Serif" font-size="9.00">last 8</text>
</g>
</g>
</svg>
