<?xml version="1.0" encoding="UTF-8" standalone="no"?>
<!DOCTYPE svg PUBLIC "-//W3C//DTD SVG 1.1//EN"
 "http://www.w3.org/Graphics/SVG/1.1/DTD/svg11.dtd">
<!-- Generated by graphviz version 2.43.0 (0)
 -->
<!-- Title: G Pages: 1 -->
<svg width="1610pt" height="236pt"
 viewBox="0.00 0.00 1609.60 235.60" xmlns="http://www.w3.org/2000/svg" xmlns:xlink="http://www.w3.org/1999/xlink">
<g id="graph0" class="graph" transform="scale(1 1) rotate(0) translate(10.8 224.8)">
<title>G</title>
<polygon fill="white" stroke="transparent" points="-10.8,10.8 -10.8,-224.8 1598.8,-224.8 1598.8,10.8 -10.8,10.8"/>
<text text-anchor="middle" x="794" y="-195.6" font-family="Helvetica,sans-Serif" font-size="18.00">Asymmetric Critic and Hybrid PPO Update</text>
<!-- state -->
<g id="node1" class="node">
<title>state</title>
<path fill="#ddf3ef" stroke="#34495e" d="M227,-171C227,-171 12,-171 12,-171 6,-171 0,-165 0,-159 0,-159 0,-143 0,-143 0,-137 6,-131 12,-131 12,-131 227,-131 227,-131 233,-131 239,-137 239,-143 239,-143 239,-159 239,-159 239,-165 233,-171 227,-171"/>
<text text-anchor="middle" x="119.5" y="-158.8" font-family="Helvetica,sans-Serif" font-size="9.00">Privileged critic state [B,26]</text>
<text text-anchor="middle" x="119.5" y="-148.8" font-family="Helvetica,sans-Serif" font-size="9.00">q [7] + qdot [7] + world position error [3]</text>
<text text-anchor="middle" x="119.5" y="-138.8" font-family="Helvetica,sans-Serif" font-size="9.00">+ rotation error [3] + previous motion action [6]</text>
</g>
<!-- critic -->
<g id="node2" class="node">
<title>critic</title>
<path fill="#ddf3ef" stroke="#34495e" d="M412,-171C412,-171 288,-171 288,-171 282,-171 276,-165 276,-159 276,-159 276,-143 276,-143 276,-137 282,-131 288,-131 288,-131 412,-131 412,-131 418,-131 424,-137 424,-143 424,-143 424,-159 424,-159 424,-165 418,-171 412,-171"/>
<text text-anchor="middle" x="350" y="-158.8" font-family="Helvetica,sans-Serif" font-size="9.00">CENTRALIZED CRITIC</text>
<text text-anchor="middle" x="350" y="-148.8" font-family="Helvetica,sans-Serif" font-size="9.00">MLP 26&#45;&gt;256&#45;&gt;128&#45;&gt;64&#45;&gt;1</text>
<text text-anchor="middle" x="350" y="-138.8" font-family="Helvetica,sans-Serif" font-size="9.00">ELU hidden activations</text>
</g>
<!-- state&#45;&gt;critic -->
<g id="edge1" class="edge">
<title>state&#45;&gt;critic</title>
<path fill="none" stroke="#34495e" stroke-width="1.15" d="M239.1,-151C249.25,-151 259.36,-151 269.1,-151"/>
<polygon fill="#34495e" stroke="#34495e" stroke-width="1.15" points="269.28,-153.28 275.78,-151 269.28,-148.73 269.28,-153.28"/>
</g>
<!-- value -->
<g id="node3" class="node">
<title>value</title>
<path fill="#ddf3ef" stroke="#34495e" d="M566,-169C566,-169 528,-169 528,-169 522,-169 516,-163 516,-157 516,-157 516,-145 516,-145 516,-139 522,-133 528,-133 528,-133 566,-133 566,-133 572,-133 578,-139 578,-145 578,-145 578,-157 578,-157 578,-163 572,-169 566,-169"/>
<text text-anchor="middle" x="547" y="-148.8" font-family="Helvetica,sans-Serif" font-size="9.00">V(s) [B,1]</text>
</g>
<!-- critic&#45;&gt;value -->
<g id="edge2" class="edge">
<title>critic&#45;&gt;value</title>
<path fill="none" stroke="#34495e" stroke-width="1.15" d="M424.17,-151C453.21,-151 485.33,-151 509.29,-151"/>
<polygon fill="#34495e" stroke="#34495e" stroke-width="1.15" points="509.33,-153.28 515.83,-151 509.33,-148.73 509.33,-153.28"/>
</g>
<!-- returns -->
<g id="node4" class="node">
<title>returns</title>
<path fill="#fff7e8" stroke="#34495e" d="M904,-130C904,-130 778,-130 778,-130 772,-130 766,-124 766,-118 766,-118 766,-106 766,-106 766,-100 772,-94 778,-94 778,-94 904,-94 904,-94 910,-94 916,-100 916,-106 916,-106 916,-118 916,-118 916,-124 910,-130 904,-130"/>
<text text-anchor="middle" x="841" y="-114.8" font-family="Helvetica,sans-Serif" font-size="9.00">GAE returns and advantages</text>
<text text-anchor="middle" x="841" y="-104.8" font-family="Helvetica,sans-Serif" font-size="9.00">gamma=0.99, lambda=0.95</text>
</g>
<!-- value&#45;&gt;returns -->
<g id="edge3" class="edge">
<title>value&#45;&gt;returns</title>
<path fill="none" stroke="#34495e" stroke-width="1.15" d="M578.15,-146.97C620.54,-141.31 699.29,-130.79 759.4,-122.77"/>
<polygon fill="#34495e" stroke="#34495e" stroke-width="1.15" points="759.75,-125.01 765.89,-121.9 759.15,-120.5 759.75,-125.01"/>
</g>
<!-- note -->
<g id="node11" class="node">
<title>note</title>
<path fill="#f4fbfa" stroke="#19857b" stroke-width="1.6" d="M967,-186C967,-186 715,-186 715,-186 709,-186 703,-180 703,-174 703,-174 703,-162 703,-162 703,-156 709,-150 715,-150 715,-150 967,-150 967,-150 973,-150 979,-156 979,-162 979,-162 979,-174 979,-174 979,-180 973,-186 967,-186"/>
<text text-anchor="middle" x="841" y="-170.8" font-family="Helvetica,sans-Serif" font-size="9.00">No critic feature or V(s) is fed into actor heads.</text>
<text text-anchor="middle" x="841" y="-160.8" font-family="Helvetica,sans-Serif" font-size="9.00">Coupling is only through advantage/return computation.</text>
</g>
<!-- value&#45;&gt;note -->
<g id="edge13" class="edge">
<title>value&#45;&gt;note</title>
<path fill="none" stroke="#19857b" stroke-width="1.15" stroke-dasharray="1,5" d="M578.15,-152.76C606.62,-154.41 651.5,-157.03 696.11,-159.62"/>
<polygon fill="#19857b" stroke="#19857b" stroke-width="1.15" points="696.07,-161.9 702.69,-160.01 696.33,-157.36 696.07,-161.9"/>
</g>
<!-- policy -->
<g id="node7" class="node">
<title>policy</title>
<path fill="#fff1d6" stroke="#34495e" d="M1178.5,-96C1178.5,-96 1081.5,-96 1081.5,-96 1075.5,-96 1069.5,-90 1069.5,-84 1069.5,-84 1069.5,-72 1069.5,-72 1069.5,-66 1075.5,-60 1081.5,-60 1081.5,-60 1178.5,-60 1178.5,-60 1184.5,-60 1190.5,-66 1190.5,-72 1190.5,-72 1190.5,-84 1190.5,-84 1190.5,-90 1184.5,-96 1178.5,-96"/>
<text text-anchor="middle" x="1130" y="-80.8" font-family="Helvetica,sans-Serif" font-size="9.00">Clipped PPO policy loss</text>
<text text-anchor="middle" x="1130" y="-70.8" font-family="Helvetica,sans-Serif" font-size="9.00">epsilon=0.1</text>
</g>
<!-- returns&#45;&gt;policy -->
<g id="edge7" class="edge">
<title>returns&#45;&gt;policy</title>
<path fill="none" stroke="#34495e" stroke-width="1.15" d="M916.28,-103.2C961.62,-97.83 1019.08,-91.02 1062.85,-85.84"/>
<polygon fill="#34495e" stroke="#34495e" stroke-width="1.15" points="1063.3,-88.07 1069.48,-85.05 1062.76,-83.56 1063.3,-88.07"/>
<text text-anchor="middle" x="1019.5" y="-95.6" font-family="Helvetica,sans-Serif" font-size="8.00">advantage</text>
</g>
<!-- old -->
<g id="node5" class="node">
<title>old</title>
<path fill="#eaf3fb" stroke="#34495e" d="M621,-76C621,-76 473,-76 473,-76 467,-76 461,-70 461,-64 461,-64 461,-48 461,-48 461,-42 467,-36 473,-36 473,-36 621,-36 621,-36 627,-36 633,-42 633,-48 633,-48 633,-64 633,-64 633,-70 627,-76 621,-76"/>
<text text-anchor="middle" x="547" y="-63.8" font-family="Helvetica,sans-Serif" font-size="9.00">Stored rollout</text>
<text text-anchor="middle" x="547" y="-53.8" font-family="Helvetica,sans-Serif" font-size="9.00">action + old log probability</text>
<text text-anchor="middle" x="547" y="-43.8" font-family="Helvetica,sans-Serif" font-size="9.00">old Gaussian/Bernoulli parameters</text>
</g>
<!-- old&#45;&gt;returns -->
<g id="edge4" class="edge">
<title>old&#45;&gt;returns</title>
<path fill="none" stroke="#34495e" stroke-width="1.15" d="M633.24,-72.35C672.87,-79.95 719.76,-88.94 758.86,-96.44"/>
<polygon fill="#34495e" stroke="#34495e" stroke-width="1.15" points="758.75,-98.73 765.56,-97.72 759.61,-94.27 758.75,-98.73"/>
<text text-anchor="middle" x="668" y="-83.6" font-family="Helvetica,sans-Serif" font-size="8.00">rewards</text>
</g>
<!-- actor -->
<g id="node6" class="node">
<title>actor</title>
<path fill="#eee8fa" stroke="#34495e" d="M913.5,-74C913.5,-74 768.5,-74 768.5,-74 762.5,-74 756.5,-68 756.5,-62 756.5,-62 756.5,-50 756.5,-50 756.5,-44 762.5,-38 768.5,-38 768.5,-38 913.5,-38 913.5,-38 919.5,-38 925.5,-44 925.5,-50 925.5,-50 925.5,-62 925.5,-62 925.5,-68 919.5,-74 913.5,-74"/>
<text text-anchor="middle" x="841" y="-58.8" font-family="Helvetica,sans-Serif" font-size="9.00">Re&#45;evaluate current actor</text>
<text text-anchor="middle" x="841" y="-48.8" font-family="Helvetica,sans-Serif" font-size="9.00">Gaussian motion + Bernoulli stop</text>
</g>
<!-- old&#45;&gt;actor -->
<g id="edge5" class="edge">
<title>old&#45;&gt;actor</title>
<path fill="none" stroke="#34495e" stroke-width="1.15" d="M633.24,-56C669.77,-56 712.47,-56 749.56,-56"/>
<polygon fill="#34495e" stroke="#34495e" stroke-width="1.15" points="749.91,-58.28 756.41,-56 749.91,-53.73 749.91,-58.28"/>
</g>
<!-- kl -->
<g id="node8" class="node">
<title>kl</title>
<path fill="#fff1d6" stroke="#34495e" d="M1188,-40C1188,-40 1072,-40 1072,-40 1066,-40 1060,-34 1060,-28 1060,-28 1060,-12 1060,-12 1060,-6 1066,0 1072,0 1072,0 1188,0 1188,0 1194,0 1200,-6 1200,-12 1200,-12 1200,-28 1200,-28 1200,-34 1194,-40 1188,-40"/>
<text text-anchor="middle" x="1130" y="-27.8" font-family="Helvetica,sans-Serif" font-size="9.00">Hybrid KL</text>
<text text-anchor="middle" x="1130" y="-17.8" font-family="Helvetica,sans-Serif" font-size="9.00">Gaussian KL + Bernoulli KL</text>
<text text-anchor="middle" x="1130" y="-7.8" font-family="Helvetica,sans-Serif" font-size="9.00">controls LR schedule</text>
</g>
<!-- old&#45;&gt;kl -->
<g id="edge9" class="edge">
<title>old&#45;&gt;kl</title>
<path fill="none" stroke="#34495e" stroke-width="1.15" d="M633.34,-38.06C655.89,-34.01 680.28,-30.25 703,-28 825.14,-15.9 967.91,-16.12 1053.26,-17.78"/>
<polygon fill="#34495e" stroke="#34495e" stroke-width="1.15" points="1053.27,-20.06 1059.81,-17.91 1053.36,-15.51 1053.27,-20.06"/>
</g>
<!-- actor&#45;&gt;policy -->
<g id="edge6" class="edge">
<title>actor&#45;&gt;policy</title>
<path fill="none" stroke="#34495e" stroke-width="1.15" d="M925.78,-62.42C969.35,-65.76 1021.86,-69.79 1062.59,-72.91"/>
<polygon fill="#34495e" stroke="#34495e" stroke-width="1.15" points="1062.63,-75.19 1069.28,-73.42 1062.97,-70.66 1062.63,-75.19"/>
</g>
<!-- actor&#45;&gt;kl -->
<g id="edge8" class="edge">
<title>actor&#45;&gt;kl</title>
<path fill="none" stroke="#34495e" stroke-width="1.15" d="M925.78,-45.49C965.98,-40.45 1013.78,-34.45 1052.93,-29.54"/>
<polygon fill="#34495e" stroke="#34495e" stroke-width="1.15" points="1053.46,-31.77 1059.63,-28.7 1052.9,-27.25 1053.46,-31.77"/>
</g>
<!-- aux -->
<g id="node9" class="node">
<title>aux</title>
<path fill="#fff7e8" stroke="#34495e" d="M1349,-93C1349,-93 1249,-93 1249,-93 1243,-93 1237,-87 1237,-81 1237,-81 1237,-69 1237,-69 1237,-63 1243,-57 1249,-57 1249,-57 1349,-57 1349,-57 1355,-57 1361,-63 1361,-69 1361,-69 1361,-81 1361,-81 1361,-87 1355,-93 1349,-93"/>
<text text-anchor="middle" x="1299" y="-77.8" font-family="Helvetica,sans-Serif" font-size="9.00">Add pose + completion</text>
<text text-anchor="middle" x="1299" y="-67.8" font-family="Helvetica,sans-Serif" font-size="9.00">auxiliary losses</text>
</g>
<!-- policy&#45;&gt;aux -->
<g id="edge10" class="edge">
<title>policy&#45;&gt;aux</title>
<path fill="none" stroke="#34495e" stroke-width="1.15" d="M1190.82,-76.93C1203.57,-76.7 1217.13,-76.45 1230.15,-76.22"/>
<polygon fill="#34495e" stroke="#34495e" stroke-width="1.15" points="1230.45,-78.49 1236.91,-76.1 1230.37,-73.94 1230.45,-78.49"/>
</g>
<!-- update -->
<g id="node10" class="node">
<title>update</title>
<path fill="#fff0f0" stroke="#34495e" d="M1576,-58C1576,-58 1410,-58 1410,-58 1404,-58 1398,-52 1398,-46 1398,-46 1398,-30 1398,-30 1398,-24 1404,-18 1410,-18 1410,-18 1576,-18 1576,-18 1582,-18 1588,-24 1588,-30 1588,-30 1588,-46 1588,-46 1588,-52 1582,-58 1576,-58"/>
<text text-anchor="middle" x="1493" y="-45.8" font-family="Helvetica,sans-Serif" font-size="9.00">Backpropagate summed loss</text>
<text text-anchor="middle" x="1493" y="-35.8" font-family="Helvetica,sans-Serif" font-size="9.00">2 mini&#45;epochs, minibatch 1024</text>
<text text-anchor="middle" x="1493" y="-25.8" font-family="Helvetica,sans-Serif" font-size="9.00">learning rate 5e&#45;5, grad norm &lt;= 0.5</text>
</g>
<!-- kl&#45;&gt;update -->
<g id="edge12" class="edge">
<title>kl&#45;&gt;update</title>
<path fill="none" stroke="#34495e" stroke-width="1.15" stroke-dasharray="5,2" d="M1200.18,-23.45C1254.3,-26.15 1330.34,-29.94 1391.22,-32.98"/>
<polygon fill="#34495e" stroke="#34495e" stroke-width="1.15" points="1391.21,-35.25 1397.82,-33.3 1391.44,-30.71 1391.21,-35.25"/>
<text text-anchor="middle" x="1299" y="-34.6" font-family="Helvetica,sans-Serif" font-size="8.00">schedule diagnostic</text>
</g>
<!-- aux&#45;&gt;update -->
<g id="edge11" class="edge">
<title>aux&#45;&gt;update</title>
<path fill="none" stroke="#34495e" stroke-width="1.15" d="M1361.01,-63.24C1370.74,-61.37 1381.03,-59.39 1391.39,-57.39"/>
<polygon fill="#34495e" stroke="#34495e" stroke-width="1.15" points="1391.89,-59.61 1397.84,-56.15 1391.03,-55.14 1391.89,-59.61"/>
</g>
</g>
</svg>
